# xmcd
#
# Track frame offsets: 
#        150
#        14205
#        25887
#        37170
#        51125
#        61600
#        70890
#        86007
#        96365
#        108482
#        123085
#        134740
#
# Disc length: 1946 seconds
#
# Revision: 0
# Processed by: cddbd v1.4PL0 Copyright (c) Steve Scherf et al.
# Submitted via: ExactAudioCopy v0.90b4
#
DISCID=ab07980c
DTITLE=Merle Haggard - Branded Man
DYEAR=1967
DGENRE=Country
TTITLE0=Branded Man
TTITLE1=Loneliness Is Eating Me Alive
TTITLE2=Don't Get Married
TTITLE3=Somewhere Between
TTITLE4=You Don't Have Very Far To Go
TTITLE5=Gone Crazy
TTITLE6=I Thre Away the Rose
TTITLE7=My Hands Are Tied
TTITLE8=Some of Us Never Learn
TTITLE9=Long Black Limousine
TTITLE10=Go Home
TTITLE11=I Made the Prison Band
EXTD=
EXTT0=
EXTT1=
EXTT2=
EXTT3=
EXTT4=
EXTT5=
EXTT6=
EXTT7=
EXTT8=
EXTT9=
EXTT10=
EXTT11=
PLAYORDER=
